<?xml version="1.0" standalone="no"?>
<!DOCTYPE svg PUBLIC "-//W3C//DTD SVG 20010904//EN"
 "http://www.w3.org/TR/2001/REC-SVG-20010904/DTD/svg10.dtd">
<svg version="1.0" xmlns="http://www.w3.org/2000/svg"
 width="208.000000pt" height="208.000000pt" viewBox="0 0 208.000000 208.000000"
 preserveAspectRatio="xMidYMid meet">
<g transform="translate(0.000000,208.000000) scale(0.100000,-0.100000)"
fill="#000000" stroke="none">
<path d="M50 1422 c-19 -7 -10 -22 13 -22 53 -1 52 7 55 -357 3 -383 5 -375
-70 -382 -5 -1 -8 -5 -8 -11 0 -7 165 -10 475 -10 437 0 539 6 440 24 -24 5
-39 14 -44 29 -5 12 -9 88 -9 170 l0 147 52 0 c82 0 97 -24 131 -205 34 -177
48 -185 293 -169 104 6 130 18 67 30 -76 14 -79 66 -13 246 l10 26 121 -1 121
-2 37 -105 c21 -58 38 -115 38 -127 1 -24 -25 -43 -59 -43 -12 0 -18 -5 -15
-10 6 -10 335 -15 335 -5 0 3 -14 18 -30 33 -25 22 -56 94 -167 382 -75 195
-140 358 -146 361 -5 4 -23 6 -40 5 -27 -1 -33 -8 -49 -46 -9 -25 -70 -180
-133 -345 -117 -303 -139 -350 -155 -340 -4 3 -18 49 -30 103 -33 146 -60 180
-162 206 l-52 13 40 7 c102 19 180 92 191 180 10 85 -30 150 -117 189 -40 18
-70 21 -289 25 -157 3 -241 1 -237 -6 3 -5 19 -12 36 -15 20 -5 34 -15 40 -32
13 -35 8 -671 -5 -684 -6 -6 -24 -13 -41 -17 l-30 -6 -3 119 c-1 65 -4 120 -7
122 -8 8 -16 -7 -25 -49 -28 -125 -87 -181 -191 -184 -85 -3 -106 2 -115 28
-4 11 -7 88 -8 170 -1 162 0 163 59 152 45 -9 74 -36 94 -89 30 -78 37 -56 37
108 0 115 -3 155 -12 155 -7 0 -18 -18 -24 -40 -19 -62 -57 -100 -105 -106
-52 -6 -51 -10 -49 177 1 106 5 151 14 163 16 19 123 22 168 5 60 -22 104 -91
115 -178 2 -14 9 -26 16 -29 9 -3 12 21 13 95 0 54 2 108 3 121 2 12 -2 22 -8
23 -34 3 -558 3 -566 1z m985 -38 c46 -22 70 -79 69 -168 -1 -81 -21 -137 -57
-160 -13 -9 -51 -18 -84 -21 l-61 -5 2 168 c1 127 4 173 15 185 17 21 73 22
116 1z m589 -286 c25 -70 46 -129 46 -132 0 -3 -49 -6 -109 -6 l-109 0 17 48
c70 185 95 242 102 230 4 -7 28 -70 53 -140z"/>
</g>
</svg>
